<svg xmlns="http://www.w3.org/2000/svg" version="1.1" xmlns:xlink="http://www.w3.org/1999/xlink" xmlns:svgjs="http://svgjs.dev/svgjs" viewBox="0 0 11.717471660262904 2.3563145314715803"><g transform="matrix(1,0,0,1,0.4093628103685729,0.4364517211030071)"><rect width="11.717471660262904" height="11.717471660262904" x="-0.4093628103685729" y="-5.117030285498669" fill="#efe0e2"></rect><g><path d=" M 0.6195 1.1099999999999999 L 0.40950000000000003 0.7199999999999999 L 0.378 0.7199999999999999 L 0.378 1.1099999999999999 L 0.084 1.1099999999999999 L 0.084 0.05249999999999977 L 0.5475 0.05249999999999977 Q 0.675 0.05249999999999977 0.7635000000000001 0.09674999999999989 Q 0.852 0.1409999999999999 0.897 0.21824999999999983 Q 0.9420000000000001 0.2954999999999999 0.9420000000000001 0.39149999999999985 Q 0.9420000000000001 0.49949999999999983 0.88275 0.5812499999999998 Q 0.8235 0.6629999999999998 0.7095 0.6974999999999998 L 0.9480000000000001 1.1099999999999999 L 0.6195 1.1099999999999999 M 0.378 0.5189999999999999 L 0.5235 0.5189999999999999 Q 0.5835 0.5189999999999999 0.6135 0.4904999999999998 Q 0.6435 0.46199999999999986 0.6435 0.4079999999999998 Q 0.6435 0.3569999999999999 0.61275 0.3277499999999999 Q 0.582 0.2984999999999999 0.5235 0.2984999999999999 L 0.378 0.2984999999999999 L 0.378 0.5189999999999999 M 1.07326611328125 0.4604999999999999 Q 1.12051611328125 0.3629999999999999 1.20226611328125 0.3104999999999999 Q 1.28401611328125 0.2579999999999999 1.38451611328125 0.2579999999999999 Q 1.47151611328125 0.2579999999999999 1.53451611328125 0.29249999999999987 Q 1.5975161132812499 0.32699999999999985 1.6320161132812498 0.38549999999999984 L 1.6320161132812498 0.26849999999999985 L 1.9260161132812499 0.26849999999999985 L 1.9260161132812499 1.1099999999999999 L 1.6320161132812498 1.1099999999999999 L 1.6320161132812498 0.9929999999999999 Q 1.5975161132812499 1.0514999999999999 1.5337661132812501 1.0859999999999999 Q 1.47001611328125 1.1204999999999998 1.38451611328125 1.1204999999999998 Q 1.28401611328125 1.1204999999999998 1.20226611328125 1.0679999999999998 Q 1.12051611328125 1.0154999999999998 1.07326611328125 0.9172499999999999 Q 1.02601611328125 0.819 1.02601611328125 0.6884999999999999 Q 1.02601611328125 0.5579999999999998 1.07326611328125 0.4604999999999999 M 1.58776611328125 0.5609999999999998 Q 1.54351611328125 0.5144999999999998 1.4790161132812498 0.5144999999999998 Q 1.41301611328125 0.5144999999999998 1.36951611328125 0.5602499999999999 Q 1.32601611328125 0.6059999999999999 1.32601611328125 0.6884999999999999 Q 1.32601611328125 0.7694999999999999 1.36951611328125 0.8167499999999999 Q 1.41301611328125 0.8639999999999999 1.4790161132812498 0.8639999999999999 Q 1.54351611328125 0.8639999999999999 1.58776611328125 0.8174999999999999 Q 1.6320161132812498 0.7709999999999999 1.6320161132812498 0.6884999999999999 Q 1.6320161132812498 0.6074999999999998 1.58776611328125 0.5609999999999998 M 2.506505126953125 0.3029999999999998 Q 2.577005126953125 0.2609999999999999 2.6580051269531246 0.2609999999999999 L 2.6580051269531246 0.5744999999999999 L 2.575505126953125 0.5744999999999999 Q 2.479505126953125 0.5744999999999999 2.433005126953125 0.6119999999999999 Q 2.386505126953125 0.6494999999999999 2.386505126953125 0.7424999999999999 L 2.386505126953125 1.1099999999999999 L 2.092505126953125 1.1099999999999999 L 2.092505126953125 0.26849999999999985 L 2.386505126953125 0.26849999999999985 L 2.386505126953125 0.4169999999999998 Q 2.436005126953125 0.34499999999999986 2.506505126953125 0.3029999999999998 M 3.561037353515625 0.7484999999999999 L 3.004537353515625 0.7484999999999999 Q 3.009037353515625 0.8174999999999999 3.042787353515625 0.8512499999999998 Q 3.076537353515625 0.8849999999999999 3.129037353515625 0.8849999999999999 Q 3.2025373535156247 0.8849999999999999 3.2340373535156246 0.819 L 3.547537353515625 0.819 Q 3.528037353515625 0.9059999999999999 3.4717873535156247 0.9742499999999998 Q 3.415537353515625 1.0425 3.3300373535156247 1.0815 Q 3.244537353515625 1.1204999999999998 3.1410373535156246 1.1204999999999998 Q 3.016537353515625 1.1204999999999998 2.9197873535156247 1.0679999999999998 Q 2.823037353515625 1.0154999999999998 2.7682873535156247 0.9179999999999999 Q 2.713537353515625 0.8204999999999999 2.713537353515625 0.6884999999999999 Q 2.713537353515625 0.5564999999999999 2.7675373535156247 0.4597499999999999 Q 2.821537353515625 0.3629999999999999 2.9182873535156246 0.3104999999999999 Q 3.0150373535156247 0.2579999999999999 3.1410373535156246 0.2579999999999999 Q 3.265537353515625 0.2579999999999999 3.361537353515625 0.30899999999999983 Q 3.457537353515625 0.3599999999999999 3.511537353515625 0.4552499999999998 Q 3.5655373535156247 0.5504999999999999 3.5655373535156247 0.6794999999999999 Q 3.5655373535156247 0.7139999999999999 3.561037353515625 0.7484999999999999 M 3.265537353515625 0.6059999999999999 Q 3.265537353515625 0.5519999999999998 3.229537353515625 0.5212499999999999 Q 3.193537353515625 0.4904999999999998 3.139537353515625 0.4904999999999998 Q 3.0855373535156247 0.4904999999999998 3.0510373535156248 0.5197499999999998 Q 3.016537353515625 0.5489999999999998 3.006037353515625 0.6059999999999999 L 3.265537353515625 0.6059999999999999 M 4.2195791015625 1.1099999999999999 L 4.0095791015625 0.7199999999999999 L 3.9780791015625 0.7199999999999999 L 3.9780791015625 1.1099999999999999 L 3.6840791015625 1.1099999999999999 L 3.6840791015625 0.05249999999999977 L 4.1475791015625 0.05249999999999977 Q 4.2750791015625 0.05249999999999977 4.3635791015625 0.09674999999999989 Q 4.4520791015625 0.1409999999999999 4.4970791015625 0.21824999999999983 Q 4.5420791015625 0.2954999999999999 4.5420791015625 0.39149999999999985 Q 4.5420791015625 0.49949999999999983 4.4828291015624995 0.5812499999999998 Q 4.4235791015625 0.6629999999999998 4.3095791015625 0.6974999999999998 L 4.5480791015625 1.1099999999999999 L 4.2195791015625 1.1099999999999999 M 3.9780791015625 0.5189999999999999 L 4.1235791015625 0.5189999999999999 Q 4.1835791015625 0.5189999999999999 4.2135791015625 0.4904999999999998 Q 4.243579101562499 0.46199999999999986 4.243579101562499 0.4079999999999998 Q 4.243579101562499 0.3569999999999999 4.2128291015625 0.3277499999999999 Q 4.1820791015625 0.2984999999999999 4.1235791015625 0.2984999999999999 L 3.9780791015625 0.2984999999999999 L 3.9780791015625 0.5189999999999999 M 5.58009521484375 0.26849999999999985 L 5.04609521484375 1.5105 L 4.72659521484375 1.5105 L 4.92759521484375 1.0739999999999998 L 4.582595214843749 0.26849999999999985 L 4.909595214843749 0.26849999999999985 L 5.08659521484375 0.7454999999999998 L 5.25759521484375 0.26849999999999985 L 5.58009521484375 0.26849999999999985 M 6.1516391601562495 0.8594999999999999 L 6.1516391601562495 1.1099999999999999 L 6.02413916015625 1.1099999999999999 Q 5.701639160156249 1.1099999999999999 5.701639160156249 0.7904999999999999 L 5.701639160156249 0.5129999999999999 L 5.59813916015625 0.5129999999999999 L 5.59813916015625 0.26849999999999985 L 5.701639160156249 0.26849999999999985 L 5.701639160156249 0.06449999999999978 L 5.99713916015625 0.06449999999999978 L 5.99713916015625 0.26849999999999985 L 6.150139160156249 0.26849999999999985 L 6.150139160156249 0.5129999999999999 L 5.99713916015625 0.5129999999999999 L 5.99713916015625 0.7949999999999999 Q 5.99713916015625 0.8294999999999999 6.0128891601562495 0.8444999999999998 Q 6.028639160156249 0.8594999999999999 6.06613916015625 0.8594999999999999 L 6.1516391601562495 0.8594999999999999 M 7.067419921875 0.3577499999999999 Q 7.152169921875 0.4544999999999999 7.152169921875 0.6194999999999999 L 7.152169921875 1.1099999999999999 L 6.858169921875 1.1099999999999999 L 6.858169921875 0.6584999999999999 Q 6.858169921875 0.5864999999999999 6.820669921875 0.5452499999999999 Q 6.7831699218749995 0.5039999999999999 6.720169921875 0.5039999999999999 Q 6.654169921875 0.5039999999999999 6.616669921874999 0.5452499999999999 Q 6.579169921875 0.5864999999999999 6.579169921875 0.6584999999999999 L 6.579169921875 1.1099999999999999 L 6.285169921874999 1.1099999999999999 L 6.285169921874999 -2.220446049250313e-16 L 6.579169921875 -2.220446049250313e-16 L 6.579169921875 0.38849999999999985 Q 6.618169921874999 0.3314999999999999 6.684919921874999 0.2962499999999999 Q 6.751669921874999 0.2609999999999999 6.838669921875 0.2609999999999999 Q 6.982669921875 0.2609999999999999 7.067419921875 0.3577499999999999 M 8.661881103515626 0.3569999999999999 Q 8.752631103515625 0.45299999999999985 8.752631103515625 0.6194999999999999 L 8.752631103515625 1.1099999999999999 L 8.458631103515625 1.1099999999999999 L 8.458631103515625 0.6584999999999999 Q 8.458631103515625 0.5909999999999999 8.421131103515625 0.5534999999999999 Q 8.383631103515624 0.5159999999999999 8.319131103515625 0.5159999999999999 Q 8.254631103515624 0.5159999999999999 8.217131103515625 0.5534999999999999 Q 8.179631103515625 0.5909999999999999 8.179631103515625 0.6584999999999999 L 8.179631103515625 1.1099999999999999 L 7.885631103515625 1.1099999999999999 L 7.885631103515625 0.6584999999999999 Q 7.885631103515625 0.5909999999999999 7.848881103515625 0.5534999999999999 Q 7.8121311035156245 0.5159999999999999 7.747631103515625 0.5159999999999999 Q 7.681631103515625 0.5159999999999999 7.644131103515624 0.5534999999999999 Q 7.606631103515625 0.5909999999999999 7.606631103515625 0.6584999999999999 L 7.606631103515625 1.1099999999999999 L 7.312631103515624 1.1099999999999999 L 7.312631103515624 0.26849999999999985 L 7.606631103515625 0.26849999999999985 L 7.606631103515625 0.37949999999999984 Q 7.645631103515624 0.3254999999999999 7.707881103515625 0.2932499999999999 Q 7.770131103515625 0.2609999999999999 7.851131103515625 0.2609999999999999 Q 7.944131103515625 0.2609999999999999 8.016881103515624 0.3014999999999999 Q 8.089631103515625 0.34199999999999986 8.131631103515625 0.41549999999999987 Q 8.176631103515625 0.3464999999999998 8.250131103515624 0.30374999999999985 Q 8.323631103515625 0.2609999999999999 8.412131103515625 0.2609999999999999 Q 8.571131103515624 0.2609999999999999 8.661881103515626 0.3569999999999999" fill="#382d5e" fill-rule="nonzero"></path></g><g></g><g clip-path="url(#SvgjsClipPath1008)"><g clip-path="url(#a8c88c1fb-f639-468c-9bd5-25f9383af01d6e24fdf3-1448-48ae-b5a5-2c171f586434)"><path d=" M 10.19944777672844 1.1138628664130583 C 10.223624594793966 1.0705347486439425 10.285547130502241 0.8783697924691936 10.28444694945544 0.8566514036563986 C 10.283360350890696 0.8349194323615442 10.282192257433598 0.8395646412258194 10.261940776683206 0.8674223119294108 C 10.241702878414873 0.8952528176688835 10.195631099269782 0.8752865690417362 10.116608218648867 0.8617448344286299 C 10.037598920510014 0.8482438472617019 9.822696889368023 0.8958232819153733 9.822696889368023 0.8958232819153733 L 9.790981793759595 0.9028182601759046 L 9.756305717062244 0.8833273984208323 L 9.759701337577065 0.8824717020510974 C 9.759701337577065 0.8824717020510974 9.775117454714351 0.886709436453594 9.788020812670672 0.8746617748670091 C 9.79145718063167 0.8714427266189588 9.792149887216693 0.869201617079177 9.791362103257255 0.8676124666782409 C 9.79297841862231 0.8675038068217665 9.794608316469425 0.8673000695908772 9.796238214316539 0.8669876725035137 C 9.806683143020127 0.8649638826766805 9.815240106717477 0.8593407351041369 9.820170547704997 0.8522099320230128 L 9.841454297091895 0.8474424808202042 C 9.847264786154872 0.8499610799653735 9.85371096604825 0.8506251455908871 9.859912890210461 0.849344028308504 C 9.867288177968653 0.8479042852102198 9.873441042341508 0.8441691026439168 9.877420709584879 0.8393609039949302 C 9.95230093317771 0.8224778787952404 10.011629214812663 0.8088003193615414 10.01680414047725 0.8066407047141153 C 10.023391644276003 0.8038970433381399 10.02742564144761 0.7995234841150505 10.02988407070034 0.795489486943443 L 10.04051915415276 0.79763551910881 C 10.04051915415276 0.79763551910881 10.073891312572421 0.8011941294083424 10.089905058920316 0.7863484765175451 C 10.09381681375339 0.782708371325657 10.096071505775232 0.7780359974972633 10.097293929160566 0.773051226581506 C 10.121239845031084 0.767876300916919 10.14426215212157 0.7625519679496797 10.150686666135611 0.7598762189840007 C 10.165437241651993 0.7537369370932043 10.163155384666034 0.7432512609434372 10.163155384666034 0.7432512609434372 C 10.163155384666034 0.7432512609434372 10.175148716324381 0.7406570068701139 10.194979140130936 0.7364056899855581 C 10.199121797159018 0.7493497953880557 10.215312115773685 0.7569559853412546 10.232561867988975 0.7535875297905523 C 10.250327754522518 0.7501375793474941 10.26263348326823 0.7363241950932023 10.260786265708168 0.7223478210541991 L 10.26639583079865 0.7211661451150415 C 10.268962919907857 0.7320864606907057 10.282124345023302 0.738701129453577 10.296236543882898 0.7359574680776018 C 10.310579644937501 0.7331594767733893 10.320440526912542 0.7217501918435907 10.318240164818938 0.7104495667702666 C 10.318225731618185 0.7103704202436989 10.31820296751857 0.7102930223050106 10.318172252408642 0.7102186645752586 C 10.341031569714417 0.7054104659262721 10.364719418425807 0.7004528599746336 10.387986210193361 0.6956310788435878 C 10.390757036533454 0.7008603344364119 10.397901422096638 0.7037941505612174 10.405494029567778 0.7023000775346961 C 10.41324962682363 0.7008060045081749 10.418886356878232 0.6952236043818092 10.419266666375892 0.6891793998654278 L 10.424441592040479 0.6881199662648037 C 10.424201755068456 0.6894862849503024 10.42420635389938 0.6908843295516273 10.424455174522539 0.692249040810826 C 10.426030742441416 0.7003713650822776 10.435687887185566 0.7053289710339165 10.446024156032681 0.7033187636891425 C 10.451986865656707 0.7021506702320439 10.456795064305693 0.6988908745378158 10.459565890645788 0.6948025474379713 L 10.464238264474181 0.6957261562180027 C 10.464238264474181 0.6957261562180027 10.4976240053759 0.6992983489995945 10.513624169241737 0.6844526961087971 C 10.51811997080336 0.6802964565986561 10.52041541027138 0.6747276389543497 10.521461261389945 0.668900754150917 C 10.54603197143519 0.6643234576969382 10.562222290049855 0.6617292036236151 10.56458564192817 0.662340415316283 C 10.576959283084179 0.6654915511540368 10.589821893594321 0.6473046076766555 10.589821893594321 0.6473046076766555 C 10.589821893594321 0.6473046076766555 10.614256778818973 0.6419802747094162 10.620776370207428 0.6617971160339114 C 10.627309544077944 0.6816139573584068 10.640131407141908 0.6700145176797783 10.639397953110706 0.6599227335097304 C 10.638650916597445 0.6498445318217416 10.65258654319027 0.6534031421212741 10.675473025460164 0.6476713346922564 C 10.698373090212117 0.6419531097452977 10.686366176071711 0.6372535709527855 10.691432441879822 0.6302721751743136 C 10.696498707687937 0.6233179443599602 10.710801061296362 0.6319292379855462 10.720498953486691 0.6327306044270439 C 10.73018326319496 0.6335591358326602 10.725089832422729 0.6471144529278255 10.737504221024915 0.6436645024847675 C 10.74440412191103 0.6417629549964676 10.74879126361618 0.633640630725016 10.751344770243325 0.6267814772850775 C 10.76033637336657 0.6323502949293839 10.772791509414933 0.6394539330463894 10.780927416168446 0.6415320528014599 C 10.794863042761271 0.645077080618933 10.880690746893885 0.5992905335970868 10.897288539970331 0.5077989344457503 C 10.913872750564716 0.41632091777647307 10.783535252723828 0.3385883729511911 10.783535252723828 0.3385883729511911 C 10.783535252723828 0.3385883729511911 10.787066698059242 0.3246255813942473 10.781660870199646 0.3199532075658535 C 10.77625504234005 0.3152672512554006 10.766122510723825 0.32918929536616665 10.766122510723825 0.32918929536616665 L 10.758040933898553 0.3155796483427641 C 10.74993219210916 0.30198358380142093 10.73872664441025 0.2941736566173325 10.731378521616177 0.2906422112819188 C 10.7271679521778 0.28863200393714483 10.720050731578734 0.2960887865876918 10.714699233647377 0.30285286265321504 C 10.713444634237284 0.30154374004275625 10.712269893111305 0.3001603576357148 10.711181370794023 0.29871020562513345 C 10.708885931326003 0.294812033274119 10.701252576408685 0.25987788941764073 10.701252576408685 0.25987788941764073 L 10.688308471006188 0.19386702660952085 C 10.688308471006188 0.19386702660952085 10.695004634661416 0.1779483576360401 10.691473189326 0.159910821461311 C 10.690495250617733 0.15484455565319807 10.688743110432085 0.13489188950811 10.68753426952881 0.13485114206193216 C 10.681517229976546 0.13456590993868717 10.684736278224596 0.12215152133650173 10.684736278224596 0.12215152133650173 C 10.684736278224596 0.12215152133650173 10.686515583374362 0.11690868326161807 10.684220143906343 0.10642300711185096 C 10.684220143906343 0.10642300711185096 10.683771921998387 0.09505446962823019 10.685591974594331 0.07628347942229999 C 10.686474835928184 0.06699306169374979 10.684301638798699 0.05084349052526112 10.684301638798699 0.05084349052526112 L 10.670664826811178 0.04547841011184396 C 10.670664826811178 0.04547841011184396 10.666114695321317 0.03696219386067297 10.65754414914191 0.017960301459734825 C 10.64237251668169 -0.01569708908317066 10.644355559062346 -0.02709279153090988 10.644355559062346 -0.02709279153090988 L 10.630311272613046 -0.026291425089412224 C 10.630311272613046 -0.026291425089412224 10.645116178057666 0.04092827862198399 10.614392603639565 0.049648232104044177 C 10.612395978776851 0.050205113868474815 10.617733894226149 0.08845338334741841 10.617733894226149 0.08845338334741841 C 10.617733894226149 0.08845338334741841 10.627051476918817 0.10249766979671807 10.631234881393077 0.12501742505101057 C 10.635418285867337 0.147523597823244 10.630840989413358 0.1475779277514812 10.632919109168428 0.15747955717269913 C 10.637496405622407 0.17919794598549427 10.647221462776855 0.1933101448450902 10.647221462776855 0.1933101448450902 C 10.647221462776855 0.1933101448450902 10.652912522759694 0.2293987996766076 10.665489901146591 0.29037056164073316 C 10.678067279533488 0.35132874112279955 10.708641446648937 0.3607685661540018 10.770441740018677 0.42270468434433656 C 10.83224203338842 0.48462722005261194 10.798761215112284 0.5256191509075309 10.782842546138804 0.5364036416626023 C 10.766910294683264 0.547201714899733 10.726624652895428 0.5435480272257858 10.726624652895428 0.5435480272257858 L 10.72108300021524 0.5278874254114314 C 10.726746895233962 0.5248042019839739 10.732818264714462 0.5197922661040982 10.722060938923509 0.5159755886454392 C 10.705422398400886 0.5100943739137694 10.692980844834581 0.5201318281555802 10.692980844834581 0.5201318281555802 L 10.472700150797115 0.5564242202179868 C 10.472700150797115 0.5564242202179868 10.452570912385257 0.551317206963696 10.450968179502262 0.5640983225814822 C 10.449379029101324 0.5768930206813276 10.454051402929718 0.5714736103396734 10.454051402929718 0.5714736103396734 L 10.450778024753431 0.5844041332601116 C 10.441976576379014 0.5838200865315625 10.432889895881354 0.5841596485830445 10.429195460761228 0.5849610150245422 C 10.422214064982757 0.5864686705331227 10.139467535954642 0.6415184703194006 10.139467535954642 0.6415184703194006 C 10.139467535954642 0.6415184703194006 10.145688312737795 0.6365065344395248 10.139141556385221 0.6232907793958415 C 10.132608382514706 0.6100886068342175 10.117871389480381 0.6096268024442019 10.106597929371176 0.6216065516204903 C 10.095310886779911 0.6335863007967786 10.109232930890677 0.6437188324130045 10.109232930890677 0.6437188324130045 L 9.961849418065388 0.6721877148092635 C 9.961849418065388 0.6721877148092635 9.961944495439802 0.6458241171321935 9.953020804726853 0.6484862836158131 C 9.944097114013903 0.6511756150635514 9.95137732439768 0.6744831542772826 9.95137732439768 0.6744831542772826 L 9.894371647194864 0.6847107632679234 L 9.88819161785789 0.6765476915502937 C 9.882011588520916 0.6683710373506049 9.676834614533373 0.7101779171290807 9.66247793099671 0.7147552135830594 C 9.648134829942107 0.7193596750011567 9.643408126185475 0.7379540929403164 9.643408126185475 0.7379540929403164 L 9.539855282965496 0.7561410364176976 L 9.537573425979534 0.7456553602679303 L 9.380084546502138 0.7814452004941436 C 9.380084546502138 0.7814452004941436 9.378685550850031 0.767455243973081 9.370889206148004 0.7636793139606001 C 9.367194771027878 0.7618864263287747 9.34589743915892 0.7623210657546717 9.3421350916285 0.7643041081353272 C 9.305543884960787 0.7834010779106805 9.310963295302443 0.79137399487948 9.30305829074394 0.8011669644442239 C 9.288103977996668 0.81963914004485 9.289991943002908 0.8311163373849448 9.302012439625374 0.8292147898966451 C 9.314032936247841 0.8273268248904047 9.308803680655016 0.8345934527921215 9.29886130378762 0.8416155960167714 C 9.282861139921783 0.8529162210900955 9.262976386186992 0.8708586798904095 9.253224164068426 0.8994090571790245 C 9.244694365335196 0.9244823190604625 9.246324263182311 0.9562245796330091 9.24481660767373 0.9577458176236489 C 9.20079578331959 1.0023642711883967 9.263465355541127 1.0286056265269332 9.264103732197913 1.0307652411743593 C 9.273000257946745 1.0612443309153925 9.283485934096511 1.0848642672164872 9.328389619784504 1.1125861130994856 C 9.385816353931157 1.1480363912742169 9.543644795460036 1.1118662415503435 9.543644795460036 1.1118662415503435 L 9.899695980162104 1.0474173641790414 L 9.995452478680056 1.0404495508826288 C 10.060960789651983 1.0356956821618795 10.1748091542729 1.0679812420167971 10.178177609823603 1.1001853069793595 C 10.181559647856364 1.1323893719419216 10.175257376180856 1.1572045666642332 10.19944777672844 1.1138628664130583 M 10.753830364460175 0.3422963905533756 C 10.745613628318585 0.33447546781873366 10.737521970441968 0.3265241800563715 10.729558469020235 0.31844555205727415 C 10.734203677884508 0.3154438235221714 10.739066206461732 0.31344719865945647 10.74136164592975 0.31628593740984684 C 10.746373581809626 0.32252029667505827 10.757579129508537 0.33691772765789907 10.757579129508537 0.33691772765789907 Z M 10.867067517388424 0.5000297547078398 C 10.866537800588112 0.4518119433973819 10.832785332670792 0.4091765322132896 10.801599953862675 0.38442924990127436 C 10.789729251942362 0.37491717832258165 10.778203883891702 0.3649819848732515 10.767046119503858 0.354642866745265 L 10.774584397046759 0.34785162571562284 C 10.774584397046759 0.34785162571562284 10.810944701519462 0.3736175941820844 10.844126705190293 0.41175720380455355 C 10.877322291343184 0.4499239783911415 10.872880819709797 0.4999346773334248 10.872880819709797 0.4999346773334248 Z M 10.543070990346266 0.5580133706189229 C 10.541305267678558 0.5670457211883467 10.545868981650477 0.5800169915549629 10.545868981650477 0.5800169915549629 C 10.545868981650477 0.5800169915549629 10.49367150309665 0.5902989304738407 10.475294404870438 0.5897148837452915 L 10.477304612215212 0.570794486236709 Z M 10.60841631153348 0.5453137498934923 C 10.608188259298617 0.5462222136507302 10.608178949472503 0.5471718159142726 10.608389146569362 0.5480845762335862 C 10.610671003555321 0.5585702523833534 10.599424708410234 0.56394891527883 10.58623611833067 0.5638945853505929 C 10.573047528251104 0.5638402554223557 10.570711341336908 0.5731442556329651 10.570711341336908 0.5731442556329651 C 10.570711341336908 0.5731442556329651 10.567777525212103 0.5613139137593288 10.561651825803365 0.5544004303911533 Z M 10.69016927104831 0.5507603251992653 C 10.69016927104831 0.5507603251992653 10.626548925082623 0.5609607692257875 10.62927900397654 0.5567094523412317 C 10.63137070621367 0.5534768216111221 10.628980189371235 0.5453137498934925 10.627717018539723 0.54156498484513 L 10.694108190845503 0.5286616268888102 C 10.694108190845503 0.5286616268888102 10.69887564204831 0.5270996414519926 10.703860412964069 0.5265155947234434 C 10.70627809477062 0.5328314488810105 10.710230597049872 0.5443222287031646 10.70684855901711 0.5434665323334298 C 10.702203350152836 0.5422712739122127 10.69016927104831 0.5507603251992652 10.69016927104831 0.5507603251992652 M 10.793015825201207 0.6198408289527833 L 10.796153378556902 0.6032430358763382 C 10.819270763021803 0.5924449626392075 10.845946757786237 0.5734974001665064 10.85917609531198 0.5410081030806992 C 10.861430787333822 0.5354528679184521 10.863142180073291 0.5299519626844421 10.864405350904804 0.5244782224145508 L 10.875529403711358 0.5220469581259389 C 10.875529403711358 0.5220469581259389 10.878164405230859 0.5441864038825718 10.856364521525707 0.5716366001243846 C 10.834564637820558 0.5990732138841381 10.793015825201207 0.6198408289527833 10.793015825201207 0.6198408289527833 M 10.754984875435213 0.6164723734020808 C 10.757823614185604 0.6159969865300059 10.76946380131041 0.6138509543646391 10.784295871719149 0.6082549717562141 L 10.783698242508539 0.6240785633552799 C 10.783698242508539 0.6240785633552799 10.776689681765948 0.6321873051446725 10.770889961926635 0.629063334271037 C 10.76756225382211 0.6272840291212709 10.760458615705105 0.6212805720510673 10.754984875435213 0.6164723734020808 M 10.462065067344696 0.6879841414442108 C 10.462125429684988 0.6869699573322052 10.46205697148393 0.6859522120764747 10.461861330113807 0.6849552479449903 C 10.461550725474785 0.6834976987042283 10.460970284429187 0.6821110895397468 10.460149937374336 0.6808669208451461 C 10.477630591784635 0.6773626404738506 10.49383449288136 0.6741707571899191 10.508028186633313 0.6714406782960028 C 10.506330282436522 0.673772940093889 10.504177086154428 0.6757366920679023 10.501698749993686 0.6772132331711986 C 10.492109517659832 0.6830401179746314 10.475973528973402 0.6862320012585631 10.462065067344696 0.6879841414442108 M 10.032301752506893 0.7905454634738637 C 10.033266108733102 0.7879647918825997 10.033537758374289 0.786158321768715 10.033537758374289 0.786158321768715 C 10.033537758374289 0.786158321768715 10.056111843556817 0.7817168501353292 10.081578997417974 0.7763789346860305 C 10.080469770219109 0.7774083978410619 10.079259301391788 0.7783230754135856 10.077966057190206 0.7791090135799466 C 10.066950664240126 0.7858051772351736 10.047296812700342 0.7890242254832238 10.032301752506893 0.7905454634738637 M 9.541716083007616 0.9220782197359693 L 9.53747834860512 0.9146486020495409 C 9.542680439233827 0.9137114107874502 9.546279796979537 0.912882879381834 9.546279796979537 0.912882879381834 C 9.546279796979537 0.912882879381834 9.656515221372684 0.8886653138701308 9.770295673583306 0.8633339848295662 C 9.772055694297963 0.8643148722209 9.773901500585897 0.8651332099840227 9.775810161299376 0.8657788316002373 C 9.774927299965523 0.8725293251837015 9.757337985698749 0.874186387994934 9.757337985698749 0.874186387994934 Z M 9.599088487226032 0.9451141093085147 L 9.571923523107465 0.9298473994738796 L 9.61658272411839 0.9185739393646739 L 9.645567740832902 0.9348593353537554 Z M 9.780373875271295 0.9051544470901015 L 9.656189241803261 0.9325231484395585 L 9.626783168144913 0.9160204327375285 L 9.746105273035722 0.8858944875300369 Z M 9.580820048856296 0.9491345239980629 L 9.55437495628687 0.9342752886252061 L 9.561736661563002 0.9324280710651435 L 9.588466986255671 0.9474502962227115 Z M 9.520540993477193 0.9624181914520425 C 9.520540993477193 0.9624181914520425 9.512092689636319 0.9513348860916667 9.485471024800121 0.9497321532086713 C 9.486802108041932 0.9409035398701369 9.48625880875956 0.9312735600901044 9.480282516653476 0.9243057467936918 C 9.471155088709637 0.9136570808592132 9.453606521889043 0.9099898107032065 9.442170071995125 0.9087266398716931 C 9.450237796585348 0.9065002610823195 9.458343209068829 0.9044127777555686 9.46648271488124 0.9024651156423643 C 9.496337010447549 0.8952120702227057 9.498673197361747 0.8990966600916609 9.500561162367987 0.9111307391961864 C 9.501158791578595 0.9148659217624895 9.50579041796081 0.9164550721634257 9.511916117369548 0.9168625466252043 L 9.510326966968611 0.918098552492599 L 9.520133519015415 0.9307302608077331 C 9.520133519015415 0.9307302608077331 9.513681840037254 0.9276334548982164 9.520255761353948 0.9387303427406514 C 9.526829682670641 0.9498272305830864 9.543250903480317 0.9370868624114779 9.543250903480317 0.9370868624114779 L 9.544174512260348 0.9368559602164701 L 9.570198547885935 0.9514842933943188 Z M 9.420872740126168 0.9782961129793455 C 9.414285236327416 0.9782689480152267 9.39389793075643 0.9774539990916697 9.388356278076241 0.9606932162305134 C 9.382828207878113 0.9440003457796534 9.398529557138646 0.9363126609340988 9.398950614082484 0.9281495892164692 C 9.399167933795432 0.923979767224269 9.409137475626947 0.9192123160214603 9.422801452578586 0.9145942721213038 C 9.437823677736153 0.9176503305846426 9.45687990006533 0.922784508803052 9.466971684235377 0.9304586111665474 C 9.474156817244738 0.9359459339184982 9.475596560343023 0.9430224070713851 9.474740863973288 0.9496099108701378 C 9.471797590817545 0.9496994141585103 9.468857820908127 0.9498806018262711 9.465925833116813 0.9501532101525091 C 9.42367073143038 0.9542551197344128 9.42747382640698 0.9783232779434641 9.420872740126168 0.9782961129793455" fill="#382d5e" transform="matrix(1,0,0,1,0,0)" fill-rule="nonzero"></path></g></g></g><defs><clipPath id="SvgjsClipPath1008"><path d=" M 9.229156005859375 -0.02708891073443409 h 1.669590033666383 v 1.164177821468868 h -1.669590033666383 Z"></path></clipPath><clipPath id="a8c88c1fb-f639-468c-9bd5-25f9383af01d6e24fdf3-1448-48ae-b5a5-2c171f586434"><path d=" M 9.229156005859375 1.137088910734434 L 10.898741865550674 1.137088910734434 L 10.898741865550674 -0.027092791530910175 L 9.229156005859375 -0.027092791530910175 Z"></path></clipPath></defs></svg>